<svg width="112" height="97" viewBox="0 0 112 97" fill="none" xmlns="http://www.w3.org/2000/svg">
<path fill-rule="evenodd" clip-rule="evenodd" d="M2.08687 60.6316C10.3462 80.0715 29.3946 94.0209 52.0282 94.8113C83.0982 95.8963 109.158 71.7734 110.235 40.9313C110.658 28.8328 107.173 17.4975 100.906 8.1229L95.9507 10.7561C101.778 19.2818 105.032 29.6534 104.645 40.7361C103.675 68.5131 80.2043 90.2387 52.222 89.2615C31.6518 88.5432 14.3696 75.7564 7.04268 57.9983L2.08687 60.6316Z" fill="#00AD97"/>
<path fill-rule="evenodd" clip-rule="evenodd" d="M18.1815 62.5615C25.5616 73.7163 38.1144 81.271 52.5917 81.7765C76.264 82.6032 96.1177 64.27 96.9363 40.8283C97.4956 24.8126 89.025 10.556 76.0529 2.86686L72.0732 6.97189C83.9877 13.4888 91.8632 26.2452 91.3607 40.6336C90.6486 61.026 73.3774 76.9743 52.7845 76.2552C39.7274 75.7993 28.4699 68.7519 22.1608 58.4569L18.1815 62.5615Z" fill="black"/>
</svg>
