<svg width="94" height="95" viewBox="0 0 94 95" fill="none" xmlns="http://www.w3.org/2000/svg">
<path fill-rule="evenodd" clip-rule="evenodd" d="M61.4749 90.0734H61.4631C60.9629 90.0734 60.5243 90.2718 60.159 90.5569C60.0886 90.6127 60.0006 90.645 59.9375 90.7082C59.5869 91.0609 59.3844 91.5429 59.3404 92.0689C59.336 92.1277 59.3067 92.1791 59.3067 92.2394C59.3067 92.5068 59.3698 92.7566 59.4593 92.9917C59.4886 93.0682 59.5253 93.1343 59.5619 93.2063C59.6412 93.3606 59.7365 93.5031 59.8509 93.6339C59.9067 93.6986 59.9566 93.7647 60.0196 93.822C60.1927 93.9792 60.3834 94.1173 60.6006 94.2129H60.602C60.8705 94.3319 61.1639 94.4039 61.4749 94.4039C62.4386 94.4039 63.2264 93.7632 63.5066 92.8889C63.5814 92.689 63.6327 92.4804 63.6342 92.2511C63.6342 92.2467 63.6371 92.2438 63.6371 92.2394C63.6371 91.0418 62.669 90.0734 61.4749 90.0734M91.7244 64.2538C91.5146 64.1656 91.2813 64.1318 91.0422 64.1157C90.9997 64.1142 90.9659 64.0907 90.9219 64.0907H90.9102C89.7161 64.0907 88.7538 65.0602 88.7538 66.2574C88.7538 66.5483 88.8154 66.823 88.9195 67.0727C88.9929 67.2519 89.1132 67.3958 89.2261 67.5471C89.2731 67.6044 89.2995 67.6749 89.3494 67.7278C89.7088 68.1098 90.2046 68.3448 90.7591 68.3888C90.762 68.3888 90.765 68.3903 90.7679 68.3918V68.3903C90.8207 68.3947 90.8677 68.4212 90.9219 68.4212C92.116 68.4212 93.0842 67.4517 93.0842 66.2574C93.0842 65.3467 92.5195 64.574 91.7244 64.2538M17.3042 25.9827H17.2925C16.0984 25.9827 15.1361 26.9522 15.1361 28.1479C15.1361 29.3422 16.1101 30.3132 17.3042 30.3132C18.4969 30.3132 19.4665 29.3422 19.4665 28.1479C19.4665 26.9522 18.4969 25.9827 17.3042 25.9827M17.3042 77.0821H17.2925C16.0984 77.0821 15.1361 78.0504 15.1361 79.248C15.1361 80.4427 16.1101 81.4125 17.3042 81.4125C18.4969 81.4125 19.4665 80.4427 19.4665 79.248C19.4665 78.0504 18.4969 77.0821 17.3042 77.0821M32.0278 43.3045C33.2219 43.3045 34.1901 42.3336 34.1901 41.1393C34.1901 39.9421 33.2219 38.9741 32.0278 38.9741H32.0175C30.8219 38.9741 29.8596 39.9421 29.8596 41.1393C29.8596 42.3336 30.8337 43.3045 32.0278 43.3045M17.3042 12.9914H17.2925C16.0984 12.9914 15.1361 13.9609 15.1361 15.1566C15.1361 16.3523 16.1101 17.3218 17.3042 17.3218C18.4969 17.3218 19.4665 16.3523 19.4665 15.1566C19.4665 13.9609 18.4969 12.9914 17.3042 12.9914M17.3042 51.0994H17.2925C16.0984 51.0994 15.1361 52.0689 15.1361 53.2646C15.1361 54.4603 16.1101 55.4298 17.3042 55.4298C18.4969 55.4298 19.4665 54.4603 19.4665 53.2646C19.4665 52.0689 18.4969 51.0994 17.3042 51.0994M17.3042 64.0907H17.2925C16.0984 64.0907 15.1361 65.0602 15.1361 66.2574C15.1361 67.4517 16.1101 68.4212 17.3042 68.4212C18.4969 68.4212 19.4665 67.4517 19.4665 66.2574C19.4665 65.0602 18.4969 64.0907 17.3042 64.0907M32.0278 17.3218C33.2219 17.3218 34.1901 16.3523 34.1901 15.1566C34.1901 13.9609 33.2219 12.9914 32.0278 12.9914H32.0175C30.8219 12.9914 29.8596 13.9609 29.8596 15.1566C29.8596 16.3523 30.8337 17.3218 32.0278 17.3218M32.0278 30.3132C33.2219 30.3132 34.1901 29.3422 34.1901 28.1479C34.1901 26.9522 33.2219 25.9827 32.0278 25.9827H32.0175C30.8219 25.9827 29.8596 26.9522 29.8596 28.1479C29.8596 29.3422 30.8337 30.3132 32.0278 30.3132M32.0278 4.33045C33.2219 4.33045 34.1901 3.36095 34.1901 2.16523C34.1901 0.969504 33.2219 0 32.0278 0H32.0175C30.8219 0 29.8596 0.969504 29.8596 2.16523C29.8596 3.36095 30.8337 4.33045 32.0278 4.33045M17.3042 38.9741H17.2925C16.0984 38.9741 15.1361 39.9421 15.1361 41.1393C15.1361 42.3336 16.1101 43.3045 17.3042 43.3045C18.4969 43.3045 19.4665 42.3336 19.4665 41.1393C19.4665 39.9421 18.4969 38.9741 17.3042 38.9741M2.58216 51.0994H2.56895C1.37485 51.0994 0.412529 52.0689 0.412529 53.2646C0.412529 54.4603 1.38805 55.4298 2.58216 55.4298C3.77626 55.4298 4.74298 54.4603 4.74298 53.2646C4.74298 52.0689 3.77626 51.0994 2.58216 51.0994M2.58216 38.9741H2.56895C1.37485 38.9741 0.412529 39.9421 0.412529 41.1393C0.412529 42.3336 1.38805 43.3045 2.58216 43.3045C3.77626 43.3045 4.74298 42.3336 4.74298 41.1393C4.74298 39.9421 3.77626 38.9741 2.58216 38.9741M2.58142 64.0907H2.56822C2.29674 64.0907 2.04287 64.1524 1.80661 64.2464C1.68628 64.292 1.58649 64.3654 1.4779 64.4315C1.38692 64.4888 1.29447 64.5402 1.21229 64.6122C1.06995 64.7282 0.958421 64.8634 0.84983 65.0132C0.829286 65.0441 0.808741 65.072 0.788197 65.1058C0.670801 65.2879 0.584221 65.4789 0.525523 65.6933L0.524055 65.6948V65.6963C0.474162 65.8784 0.412529 66.0576 0.412529 66.2574C0.412529 67.1094 0.9188 67.8307 1.63638 68.1832V68.1847H1.63785C1.92401 68.3242 2.23217 68.4168 2.56968 68.4182C2.57409 68.4182 2.57702 68.4212 2.58142 68.4212C3.77593 68.4212 4.74298 67.4517 4.74298 66.2574C4.74298 65.9577 4.68282 65.6728 4.57276 65.4142C4.24552 64.6372 3.47657 64.0907 2.58142 64.0907M76.1984 38.9741H76.1867C74.9926 38.9741 74.0302 39.9421 74.0302 41.1393C74.0302 42.3336 75.0043 43.3045 76.1984 43.3045C77.3925 43.3045 78.3607 42.3336 78.3607 41.1393C78.3607 39.9421 77.3925 38.9741 76.1984 38.9741M2.58142 25.9827H2.56822C2.32169 25.9827 2.09423 26.0371 1.87998 26.1223C1.68481 26.1898 1.51459 26.2912 1.35023 26.4087C1.34876 26.4087 1.34876 26.4087 1.3473 26.4102V26.4102C0.794067 26.8024 0.412529 27.4164 0.412529 28.1479C0.412529 28.2405 0.453618 28.3183 0.465357 28.4094H0.46389C0.46389 28.4124 0.465357 28.4138 0.466825 28.4153C0.534328 28.9426 0.770587 29.4083 1.14772 29.7462C1.19908 29.7932 1.26365 29.8196 1.31795 29.8607C1.46616 29.9694 1.6085 30.0825 1.78313 30.1516C2.02819 30.2529 2.29527 30.3132 2.58142 30.3132C3.47657 30.3132 4.24552 29.7682 4.57276 28.9897C4.68282 28.7311 4.74298 28.4461 4.74298 28.1479C4.74298 27.8498 4.68282 27.5648 4.57276 27.3062C4.24552 26.5277 3.47657 25.9827 2.58142 25.9827M76.1984 51.0994H76.1867C74.9926 51.0994 74.0302 52.0689 74.0302 53.2646C74.0302 54.4603 75.0043 55.4298 76.1984 55.4298C77.3925 55.4298 78.3607 54.4603 78.3607 53.2646C78.3607 52.0689 77.3925 51.0994 76.1984 51.0994M76.1984 25.9827H76.1867C74.9926 25.9827 74.0302 26.9522 74.0302 28.1479C74.0302 29.3422 75.0043 30.3132 76.1984 30.3132C77.3925 30.3132 78.3607 29.3422 78.3607 28.1479C78.3607 26.9522 77.3925 25.9827 76.1984 25.9827M76.1984 77.0821H76.1867C74.9926 77.0821 74.0302 78.0504 74.0302 79.248C74.0302 80.4427 75.0043 81.4125 76.1984 81.4125C77.3925 81.4125 78.3607 80.4427 78.3607 79.248C78.3607 78.0504 77.3925 77.0821 76.1984 77.0821M76.1984 64.0907H76.1867C74.9926 64.0907 74.0302 65.0602 74.0302 66.2574C74.0302 67.4517 75.0043 68.4212 76.1984 68.4212C77.3925 68.4212 78.3607 67.4517 78.3607 66.2574C78.3607 65.0602 77.3925 64.0907 76.1984 64.0907M61.4756 4.33045C62.6693 4.33045 63.6371 3.36095 63.6371 2.16523C63.6371 2.16523 63.6357 2.16376 63.6357 2.16229C63.6357 1.81121 63.533 1.49245 63.3835 1.19866C63.3688 1.17075 63.3497 1.15018 63.3336 1.12374C63.1767 0.846113 62.9626 0.615488 62.703 0.430401V0.430401H62.7015C62.3481 0.179211 61.9405 0 61.4756 0H61.4639C60.2702 0 59.3067 0.969504 59.3067 2.16523C59.3067 3.36095 60.2819 4.33045 61.4756 4.33045M76.1984 12.9914H76.1867C74.9926 12.9914 74.0302 13.9609 74.0302 15.1566C74.0302 16.3523 75.0043 17.3218 76.1984 17.3218C77.3925 17.3218 78.3607 16.3523 78.3607 15.1566C78.3607 13.9609 77.3925 12.9914 76.1984 12.9914M61.4749 25.9827H61.4631C60.269 25.9827 59.3067 26.9522 59.3067 28.1479C59.3067 29.3422 60.2808 30.3132 61.4749 30.3132C62.669 30.3132 63.6371 29.3422 63.6371 28.1479C63.6371 26.9522 62.669 25.9827 61.4749 25.9827M61.4749 64.0907H61.4631C60.269 64.0907 59.3067 65.0602 59.3067 66.2574C59.3067 67.4517 60.2808 68.4212 61.4749 68.4212C62.669 68.4212 63.6371 67.4517 63.6371 66.2574C63.6371 65.0602 62.669 64.0907 61.4749 64.0907M61.4749 51.0994H61.4631C60.269 51.0994 59.3067 52.0689 59.3067 53.2646C59.3067 54.4603 60.2808 55.4298 61.4749 55.4298C62.669 55.4298 63.6371 54.4603 63.6371 53.2646C63.6371 52.0689 62.669 51.0994 61.4749 51.0994M61.4749 38.9741H61.4631C60.269 38.9741 59.3067 39.9421 59.3067 41.1393C59.3067 42.3336 60.2808 43.3045 61.4749 43.3045C62.669 43.3045 63.6371 42.3336 63.6371 41.1393C63.6371 39.9421 62.669 38.9741 61.4749 38.9741M61.4749 77.0821H61.4631C60.269 77.0821 59.3067 78.0504 59.3067 79.248C59.3067 80.4427 60.2808 81.4125 61.4749 81.4125C62.669 81.4125 63.6371 80.4427 63.6371 79.248C63.6371 78.0504 62.669 77.0821 61.4749 77.0821M32.0278 55.4298C33.2219 55.4298 34.1901 54.4603 34.1901 53.2646C34.1901 52.0689 33.2219 51.0994 32.0278 51.0994H32.0175C30.8219 51.0994 29.8596 52.0689 29.8596 53.2646C29.8596 54.4603 30.8337 55.4298 32.0278 55.4298M33.5563 90.7082C33.4918 90.6436 33.4038 90.6112 33.3319 90.5569C32.9666 90.2718 32.528 90.0734 32.0278 90.0734H32.016C30.8219 90.0734 29.8596 91.0418 29.8596 92.2394C29.8596 92.8272 30.0987 93.3562 30.4801 93.747C30.4816 93.7485 30.4816 93.75 30.4831 93.75C30.8762 94.1526 31.4219 94.4039 32.0278 94.4039C32.1422 94.4039 32.2405 94.3569 32.3505 94.3392V94.3392C32.352 94.3392 32.3534 94.3378 32.3549 94.3378C32.8654 94.2584 33.3114 94.0233 33.6356 93.6515C33.6884 93.5942 33.7192 93.5237 33.7646 93.4605C33.8629 93.3209 33.9671 93.1887 34.0316 93.0285C34.1285 92.789 34.1857 92.5274 34.1871 92.2482C34.1871 92.2453 34.1901 92.2438 34.1901 92.2394C34.1901 91.6898 33.9686 91.202 33.6326 90.8199C33.6018 90.7846 33.5886 90.7391 33.5563 90.7082M90.0789 30.1428C90.3386 30.253 90.6233 30.3132 90.9227 30.3132C91.2382 30.3132 91.5331 30.2383 91.8031 30.1164C91.812 30.112 91.8178 30.1047 91.8266 30.1002C92.0908 29.9769 92.3182 29.8036 92.5105 29.5892C92.8597 29.206 93.0842 28.7067 93.0842 28.1487C93.0842 26.9534 92.1157 25.9827 90.9227 25.9827H90.9109C89.7164 25.9827 88.7538 26.9534 88.7538 28.1487C88.7538 29.0444 89.3011 29.8139 90.0789 30.1428M90.9227 43.3045C92.1157 43.3045 93.0842 42.3336 93.0842 41.1393C93.0842 39.9421 92.1157 38.9741 90.9227 38.9741H90.9109C89.7164 38.9741 88.7538 39.9421 88.7538 41.1393C88.7538 42.3336 89.7267 43.3045 90.9227 43.3045M90.9227 55.4298C92.1157 55.4298 93.0842 54.4603 93.0842 53.2646C93.0842 52.0689 92.1157 51.0994 90.9227 51.0994H90.9109C89.7164 51.0994 88.7538 52.0689 88.7538 53.2646C88.7538 54.4603 89.7267 55.4298 90.9227 55.4298M46.7513 25.9827H46.741C45.5469 25.9827 44.5832 26.9522 44.5832 28.1479C44.5832 29.3422 45.5572 30.3132 46.7513 30.3132C47.9454 30.3132 48.9136 29.3422 48.9136 28.1479C48.9136 26.9522 47.9454 25.9827 46.7513 25.9827M46.7513 12.9914H46.741C45.5469 12.9914 44.5832 13.9609 44.5832 15.1566C44.5832 16.3523 45.5572 17.3218 46.7513 17.3218C47.9454 17.3218 48.9136 16.3523 48.9136 15.1566C48.9136 13.9609 47.9454 12.9914 46.7513 12.9914M46.7513 0H46.741C45.5469 0 44.5832 0.969504 44.5832 2.16523C44.5832 3.36095 45.5572 4.33045 46.7513 4.33045C47.9454 4.33045 48.9136 3.36095 48.9136 2.16523C48.9136 0.969504 47.9454 0 46.7513 0M32.0278 81.4125C33.2219 81.4125 34.1901 80.4427 34.1901 79.248C34.1901 78.0504 33.2219 77.0821 32.0278 77.0821H32.0175C30.8219 77.0821 29.8596 78.0504 29.8596 79.248C29.8596 80.4427 30.8337 81.4125 32.0278 81.4125M32.0278 68.4212C33.2219 68.4212 34.1901 67.4517 34.1901 66.2574C34.1901 65.0602 33.2219 64.0907 32.0278 64.0907H32.0175C30.8219 64.0907 29.8596 65.0602 29.8596 66.2574C29.8596 67.4517 30.8337 68.4212 32.0278 68.4212M46.7513 38.9741H46.741C45.5469 38.9741 44.5832 39.9421 44.5832 41.1393C44.5832 42.3336 45.5572 43.3045 46.7513 43.3045C47.9454 43.3045 48.9136 42.3336 48.9136 41.1393C48.9136 39.9421 47.9454 38.9741 46.7513 38.9741M61.4749 12.9914H61.4631C60.269 12.9914 59.3067 13.9609 59.3067 15.1566C59.3067 16.3523 60.2808 17.3218 61.4749 17.3218C62.669 17.3218 63.6371 16.3523 63.6371 15.1566C63.6371 13.9609 62.669 12.9914 61.4749 12.9914M46.7513 77.0821H46.741C45.5469 77.0821 44.5832 78.0504 44.5832 79.248C44.5832 80.4427 45.5572 81.4125 46.7513 81.4125C47.9454 81.4125 48.9136 80.4427 48.9136 79.248C48.9136 78.0504 47.9454 77.0821 46.7513 77.0821M46.7513 90.0734H46.741C45.5469 90.0734 44.5832 91.0433 44.5832 92.2394C44.5832 93.4355 45.5572 94.4039 46.7513 94.4039C47.9454 94.4039 48.9136 93.4355 48.9136 92.2394C48.9136 91.0433 47.9454 90.0734 46.7513 90.0734M46.7513 64.0907H46.741C45.5469 64.0907 44.5832 65.0602 44.5832 66.2574C44.5832 67.4517 45.5572 68.4212 46.7513 68.4212C47.9454 68.4212 48.9136 67.4517 48.9136 66.2574C48.9136 65.0602 47.9454 64.0907 46.7513 64.0907M46.7513 51.0994H46.741C45.5469 51.0994 44.5832 52.0689 44.5832 53.2646C44.5832 54.4603 45.5572 55.4298 46.7513 55.4298C47.9454 55.4298 48.9136 54.4603 48.9136 53.2646C48.9136 52.0689 47.9454 51.0994 46.7513 51.0994" fill="black"/>
</svg>
