<svg width="22" height="69" viewBox="0 0 22 69" fill="none" xmlns="http://www.w3.org/2000/svg">
<mask id="mask0_779_4734" style="mask-type:luminance" maskUnits="userSpaceOnUse" x="12" y="2" width="10" height="67">
<path fill-rule="evenodd" clip-rule="evenodd" d="M12.9003 2.09244H21.6617V68.4493H12.9003V2.09244Z" fill="white"/>
</mask>
<g mask="url(#mask0_779_4734)">
<path fill-rule="evenodd" clip-rule="evenodd" d="M12.9003 67.3021C12.9003 64.1134 14.8112 62.514 16.4949 61.1014C18.0479 59.8028 19.2728 58.7779 19.2728 56.6312C19.2728 54.4831 18.0479 53.4582 16.4949 52.1568C14.8112 50.7456 12.9003 49.1462 12.9003 45.9561C12.9003 42.7688 14.8112 41.1695 16.4949 39.7583C18.0479 38.4597 19.2728 37.4334 19.2728 35.2881C19.2728 33.14 18.0479 32.1136 16.4949 30.8136C14.8112 29.401 12.9003 27.8017 12.9003 24.6101C12.9003 21.4186 14.8097 19.8164 16.4949 18.4038C18.0464 17.1038 19.2728 16.0746 19.2728 13.925C19.2728 11.7755 18.0464 10.7477 16.4949 9.44771C14.8097 8.03368 12.9003 6.43291 12.9003 3.23992C12.9003 2.60702 13.4348 2.09244 14.0955 2.09244C14.7548 2.09244 15.2893 2.60702 15.2893 3.23992C15.2893 5.39091 16.5156 6.41865 18.0672 7.71865C19.7523 9.13127 21.6617 10.732 21.6617 13.925C21.6617 17.1166 19.7523 18.7188 18.0657 20.1314C16.5156 21.4328 15.2893 22.4606 15.2893 24.6101C15.2893 26.7583 16.5156 27.786 18.0657 29.0846C19.7523 30.4972 21.6617 32.0965 21.6617 35.2881C21.6617 38.4768 19.7509 40.0762 18.0657 41.4874C16.5156 42.7859 15.2893 43.8122 15.2893 45.9561C15.2893 48.1042 16.5156 49.1291 18.0657 50.4291C19.7509 51.8403 21.6617 53.4411 21.6617 56.6312C21.6617 59.8199 19.7509 61.4207 18.0657 62.8319C16.5156 64.1305 15.2893 65.1568 15.2893 67.3021C15.2893 67.935 14.7548 68.4496 14.0955 68.4496C13.4348 68.4496 12.9003 67.935 12.9003 67.3021" fill="#7F9C00"/>
</g>
<path fill-rule="evenodd" clip-rule="evenodd" d="M0.695465 66.1232C0.695465 62.9171 2.58472 61.3098 4.24937 59.8916C5.78338 58.5865 6.99591 57.5565 6.99591 55.399C6.99591 53.2401 5.78338 52.2087 4.24937 50.9022C2.58472 49.4839 0.695465 47.8766 0.695465 44.6705C0.695465 41.4658 2.58472 39.8599 4.24937 38.4403C5.78338 37.1366 6.99591 36.1052 6.99591 33.9491C6.99591 31.7903 5.78338 30.7574 4.24937 29.4509C2.58472 28.0326 0.695465 26.4239 0.695465 23.2178C0.695465 20.0088 2.58325 18.4 4.2479 16.9804C5.78338 15.6724 6.99591 14.6395 6.99591 12.4792C6.99591 10.3175 5.78338 9.28603 4.24937 7.97809C2.58325 6.55841 0.695465 4.94821 0.695465 1.74068C0.695465 1.10319 1.22393 0.587463 1.8757 0.587463C2.52894 0.587463 3.0574 1.10319 3.0574 1.74068C3.0574 3.901 4.26992 4.93388 5.80393 6.24182C7.47006 7.66149 9.35637 9.27027 9.35637 12.4792C9.35637 15.6867 7.47006 17.297 5.80246 18.7166C4.26992 20.0246 3.0574 21.0575 3.0574 23.2178C3.0574 25.3767 4.26992 26.4081 5.80246 27.7146C7.47006 29.1328 9.35637 30.7416 9.35637 33.9491C9.35637 37.1538 7.46859 38.7597 5.80246 40.1794C4.26846 41.4845 3.0574 42.5145 3.0574 44.6705C3.0574 46.828 4.26846 47.8594 5.80246 49.1659C7.46859 50.5842 9.35637 52.1929 9.35637 55.399C9.35637 58.6037 7.46859 60.2124 5.80246 61.6293C4.26846 62.9343 3.0574 63.9658 3.0574 66.1232C3.0574 66.7593 2.52894 67.2765 1.8757 67.2765C1.22393 67.2765 0.695465 66.7593 0.695465 66.1232" fill="#7F9C00"/>
</svg>
